<mxfile host="app.diagrams.net" modified="2022-10-01T00:36:26.740Z" agent="5.0 (X11; Ubuntu)" etag="cW_UTP-3M8PTmf4wbO6_" version="20.3.7" type="github">
  <diagram id="k-5GSpIOhg20VD_HhHWK" name="Página-1">
    <mxGraphModel dx="708" dy="390" grid="1" gridSize="10" guides="1" tooltips="1" connect="1" arrows="1" fold="1" page="1" pageScale="1" pageWidth="827" pageHeight="1169" math="0" shadow="0">
      <root>
        <mxCell id="0" />
        <mxCell id="1" parent="0" />
        <mxCell id="0wJ1i4YOx7rMI4dwbwaJ-55" value="Pessoa" style="swimlane;fontStyle=0;childLayout=stackLayout;horizontal=1;startSize=26;horizontalStack=0;resizeParent=1;resizeParentMax=0;resizeLast=0;collapsible=1;marginBottom=0;align=center;fontSize=14;" vertex="1" parent="1">
          <mxGeometry x="300" y="360" width="160" height="266" as="geometry" />
        </mxCell>
        <mxCell id="0wJ1i4YOx7rMI4dwbwaJ-56" value="*Matrícula" style="text;strokeColor=none;fillColor=none;spacingLeft=4;spacingRight=4;overflow=hidden;rotatable=0;points=[[0,0.5],[1,0.5]];portConstraint=eastwest;fontSize=12;" vertex="1" parent="0wJ1i4YOx7rMI4dwbwaJ-55">
          <mxGeometry y="26" width="160" height="30" as="geometry" />
        </mxCell>
        <mxCell id="0wJ1i4YOx7rMI4dwbwaJ-57" value="*CPF" style="text;strokeColor=none;fillColor=none;spacingLeft=4;spacingRight=4;overflow=hidden;rotatable=0;points=[[0,0.5],[1,0.5]];portConstraint=eastwest;fontSize=12;" vertex="1" parent="0wJ1i4YOx7rMI4dwbwaJ-55">
          <mxGeometry y="56" width="160" height="30" as="geometry" />
        </mxCell>
        <mxCell id="0wJ1i4YOx7rMI4dwbwaJ-58" value="Telefone" style="text;strokeColor=none;fillColor=none;spacingLeft=4;spacingRight=4;overflow=hidden;rotatable=0;points=[[0,0.5],[1,0.5]];portConstraint=eastwest;fontSize=12;" vertex="1" parent="0wJ1i4YOx7rMI4dwbwaJ-55">
          <mxGeometry y="86" width="160" height="30" as="geometry" />
        </mxCell>
        <mxCell id="0wJ1i4YOx7rMI4dwbwaJ-60" value="RG" style="text;strokeColor=none;fillColor=none;spacingLeft=4;spacingRight=4;overflow=hidden;rotatable=0;points=[[0,0.5],[1,0.5]];portConstraint=eastwest;fontSize=12;" vertex="1" parent="0wJ1i4YOx7rMI4dwbwaJ-55">
          <mxGeometry y="116" width="160" height="30" as="geometry" />
        </mxCell>
        <mxCell id="0wJ1i4YOx7rMI4dwbwaJ-61" value="Email" style="text;strokeColor=none;fillColor=none;spacingLeft=4;spacingRight=4;overflow=hidden;rotatable=0;points=[[0,0.5],[1,0.5]];portConstraint=eastwest;fontSize=12;" vertex="1" parent="0wJ1i4YOx7rMI4dwbwaJ-55">
          <mxGeometry y="146" width="160" height="30" as="geometry" />
        </mxCell>
        <mxCell id="0wJ1i4YOx7rMI4dwbwaJ-64" value="Nome" style="text;strokeColor=none;fillColor=none;spacingLeft=4;spacingRight=4;overflow=hidden;rotatable=0;points=[[0,0.5],[1,0.5]];portConstraint=eastwest;fontSize=12;" vertex="1" parent="0wJ1i4YOx7rMI4dwbwaJ-55">
          <mxGeometry y="176" width="160" height="30" as="geometry" />
        </mxCell>
        <mxCell id="0wJ1i4YOx7rMI4dwbwaJ-65" value="Data de nascimento" style="text;strokeColor=none;fillColor=none;spacingLeft=4;spacingRight=4;overflow=hidden;rotatable=0;points=[[0,0.5],[1,0.5]];portConstraint=eastwest;fontSize=12;" vertex="1" parent="0wJ1i4YOx7rMI4dwbwaJ-55">
          <mxGeometry y="206" width="160" height="30" as="geometry" />
        </mxCell>
        <mxCell id="0wJ1i4YOx7rMI4dwbwaJ-66" value="Endereço" style="text;strokeColor=none;fillColor=none;spacingLeft=4;spacingRight=4;overflow=hidden;rotatable=0;points=[[0,0.5],[1,0.5]];portConstraint=eastwest;fontSize=12;" vertex="1" parent="0wJ1i4YOx7rMI4dwbwaJ-55">
          <mxGeometry y="236" width="160" height="30" as="geometry" />
        </mxCell>
        <mxCell id="0wJ1i4YOx7rMI4dwbwaJ-67" value="Aluno" style="swimlane;fontStyle=0;childLayout=stackLayout;horizontal=1;startSize=26;horizontalStack=0;resizeParent=1;resizeParentMax=0;resizeLast=0;collapsible=1;marginBottom=0;align=center;fontSize=14;" vertex="1" parent="1">
          <mxGeometry x="190" y="730" width="160" height="146" as="geometry" />
        </mxCell>
        <mxCell id="0wJ1i4YOx7rMI4dwbwaJ-68" value="Notas" style="text;strokeColor=none;fillColor=none;spacingLeft=4;spacingRight=4;overflow=hidden;rotatable=0;points=[[0,0.5],[1,0.5]];portConstraint=eastwest;fontSize=12;" vertex="1" parent="0wJ1i4YOx7rMI4dwbwaJ-67">
          <mxGeometry y="26" width="160" height="30" as="geometry" />
        </mxCell>
        <mxCell id="0wJ1i4YOx7rMI4dwbwaJ-69" value="Frequência" style="text;strokeColor=none;fillColor=none;spacingLeft=4;spacingRight=4;overflow=hidden;rotatable=0;points=[[0,0.5],[1,0.5]];portConstraint=eastwest;fontSize=12;" vertex="1" parent="0wJ1i4YOx7rMI4dwbwaJ-67">
          <mxGeometry y="56" width="160" height="30" as="geometry" />
        </mxCell>
        <mxCell id="0wJ1i4YOx7rMI4dwbwaJ-70" value="Turno" style="text;strokeColor=none;fillColor=none;spacingLeft=4;spacingRight=4;overflow=hidden;rotatable=0;points=[[0,0.5],[1,0.5]];portConstraint=eastwest;fontSize=12;" vertex="1" parent="0wJ1i4YOx7rMI4dwbwaJ-67">
          <mxGeometry y="86" width="160" height="30" as="geometry" />
        </mxCell>
        <mxCell id="0wJ1i4YOx7rMI4dwbwaJ-71" value="Mensalidade" style="text;strokeColor=none;fillColor=none;spacingLeft=4;spacingRight=4;overflow=hidden;rotatable=0;points=[[0,0.5],[1,0.5]];portConstraint=eastwest;fontSize=12;" vertex="1" parent="0wJ1i4YOx7rMI4dwbwaJ-67">
          <mxGeometry y="116" width="160" height="30" as="geometry" />
        </mxCell>
        <mxCell id="0wJ1i4YOx7rMI4dwbwaJ-72" value="Professor" style="swimlane;fontStyle=0;childLayout=stackLayout;horizontal=1;startSize=26;horizontalStack=0;resizeParent=1;resizeParentMax=0;resizeLast=0;collapsible=1;marginBottom=0;align=center;fontSize=14;" vertex="1" parent="1">
          <mxGeometry x="380" y="730" width="160" height="116" as="geometry" />
        </mxCell>
        <mxCell id="0wJ1i4YOx7rMI4dwbwaJ-73" value="Data de admissão" style="text;strokeColor=none;fillColor=none;spacingLeft=4;spacingRight=4;overflow=hidden;rotatable=0;points=[[0,0.5],[1,0.5]];portConstraint=eastwest;fontSize=12;" vertex="1" parent="0wJ1i4YOx7rMI4dwbwaJ-72">
          <mxGeometry y="26" width="160" height="30" as="geometry" />
        </mxCell>
        <mxCell id="0wJ1i4YOx7rMI4dwbwaJ-74" value="Área de formação" style="text;strokeColor=none;fillColor=none;spacingLeft=4;spacingRight=4;overflow=hidden;rotatable=0;points=[[0,0.5],[1,0.5]];portConstraint=eastwest;fontSize=12;" vertex="1" parent="0wJ1i4YOx7rMI4dwbwaJ-72">
          <mxGeometry y="56" width="160" height="30" as="geometry" />
        </mxCell>
        <mxCell id="0wJ1i4YOx7rMI4dwbwaJ-75" value="Salário" style="text;strokeColor=none;fillColor=none;spacingLeft=4;spacingRight=4;overflow=hidden;rotatable=0;points=[[0,0.5],[1,0.5]];portConstraint=eastwest;fontSize=12;" vertex="1" parent="0wJ1i4YOx7rMI4dwbwaJ-72">
          <mxGeometry y="86" width="160" height="30" as="geometry" />
        </mxCell>
        <mxCell id="0wJ1i4YOx7rMI4dwbwaJ-77" value="" style="edgeStyle=elbowEdgeStyle;fontSize=12;html=1;endArrow=ERmandOne;startArrow=ERmandOne;rounded=0;elbow=vertical;" edge="1" parent="1">
          <mxGeometry width="100" height="100" relative="1" as="geometry">
            <mxPoint x="280" y="730" as="sourcePoint" />
            <mxPoint x="340" y="630" as="targetPoint" />
          </mxGeometry>
        </mxCell>
        <mxCell id="0wJ1i4YOx7rMI4dwbwaJ-78" value="&amp;nbsp;" style="edgeLabel;html=1;align=center;verticalAlign=middle;resizable=0;points=[];fontSize=11;" vertex="1" connectable="0" parent="0wJ1i4YOx7rMI4dwbwaJ-77">
          <mxGeometry x="0.4235" y="-4" relative="1" as="geometry">
            <mxPoint as="offset" />
          </mxGeometry>
        </mxCell>
        <mxCell id="0wJ1i4YOx7rMI4dwbwaJ-79" value="" style="edgeStyle=elbowEdgeStyle;fontSize=12;html=1;endArrow=ERmandOne;startArrow=ERmandOne;rounded=0;elbow=vertical;" edge="1" parent="1">
          <mxGeometry width="100" height="100" relative="1" as="geometry">
            <mxPoint x="420" y="626" as="sourcePoint" />
            <mxPoint x="460" y="730" as="targetPoint" />
          </mxGeometry>
        </mxCell>
        <mxCell id="0wJ1i4YOx7rMI4dwbwaJ-81" value="Curso" style="swimlane;fontStyle=0;childLayout=stackLayout;horizontal=1;startSize=26;horizontalStack=0;resizeParent=1;resizeParentMax=0;resizeLast=0;collapsible=1;marginBottom=0;align=center;fontSize=14;" vertex="1" parent="1">
          <mxGeometry x="620" y="366" width="160" height="86" as="geometry" />
        </mxCell>
        <mxCell id="0wJ1i4YOx7rMI4dwbwaJ-82" value="*Código" style="text;strokeColor=none;fillColor=none;spacingLeft=4;spacingRight=4;overflow=hidden;rotatable=0;points=[[0,0.5],[1,0.5]];portConstraint=eastwest;fontSize=12;" vertex="1" parent="0wJ1i4YOx7rMI4dwbwaJ-81">
          <mxGeometry y="26" width="160" height="30" as="geometry" />
        </mxCell>
        <mxCell id="0wJ1i4YOx7rMI4dwbwaJ-83" value="Nome" style="text;strokeColor=none;fillColor=none;spacingLeft=4;spacingRight=4;overflow=hidden;rotatable=0;points=[[0,0.5],[1,0.5]];portConstraint=eastwest;fontSize=12;" vertex="1" parent="0wJ1i4YOx7rMI4dwbwaJ-81">
          <mxGeometry y="56" width="160" height="30" as="geometry" />
        </mxCell>
        <mxCell id="0wJ1i4YOx7rMI4dwbwaJ-86" value="" style="fontSize=12;html=1;endArrow=ERzeroToMany;endFill=1;rounded=0;elbow=vertical;" edge="1" parent="1">
          <mxGeometry width="100" height="100" relative="1" as="geometry">
            <mxPoint x="460" y="409" as="sourcePoint" />
            <mxPoint x="620" y="408.5" as="targetPoint" />
          </mxGeometry>
        </mxCell>
        <mxCell id="0wJ1i4YOx7rMI4dwbwaJ-87" value="Cursa" style="text;html=1;align=center;verticalAlign=middle;resizable=0;points=[];autosize=1;strokeColor=none;fillColor=none;fontSize=11;" vertex="1" parent="1">
          <mxGeometry x="500" y="375" width="60" height="30" as="geometry" />
        </mxCell>
        <mxCell id="0wJ1i4YOx7rMI4dwbwaJ-88" value="Disciplina" style="swimlane;fontStyle=0;childLayout=stackLayout;horizontal=1;startSize=26;horizontalStack=0;resizeParent=1;resizeParentMax=0;resizeLast=0;collapsible=1;marginBottom=0;align=center;fontSize=14;" vertex="1" parent="1">
          <mxGeometry x="620" y="560" width="160" height="146" as="geometry" />
        </mxCell>
        <mxCell id="0wJ1i4YOx7rMI4dwbwaJ-89" value="*Código    " style="text;strokeColor=none;fillColor=none;spacingLeft=4;spacingRight=4;overflow=hidden;rotatable=0;points=[[0,0.5],[1,0.5]];portConstraint=eastwest;fontSize=12;" vertex="1" parent="0wJ1i4YOx7rMI4dwbwaJ-88">
          <mxGeometry y="26" width="160" height="30" as="geometry" />
        </mxCell>
        <mxCell id="0wJ1i4YOx7rMI4dwbwaJ-90" value="Nome" style="text;strokeColor=none;fillColor=none;spacingLeft=4;spacingRight=4;overflow=hidden;rotatable=0;points=[[0,0.5],[1,0.5]];portConstraint=eastwest;fontSize=12;" vertex="1" parent="0wJ1i4YOx7rMI4dwbwaJ-88">
          <mxGeometry y="56" width="160" height="30" as="geometry" />
        </mxCell>
        <mxCell id="0wJ1i4YOx7rMI4dwbwaJ-92" value="Carga horária" style="text;strokeColor=none;fillColor=none;spacingLeft=4;spacingRight=4;overflow=hidden;rotatable=0;points=[[0,0.5],[1,0.5]];portConstraint=eastwest;fontSize=12;" vertex="1" parent="0wJ1i4YOx7rMI4dwbwaJ-88">
          <mxGeometry y="86" width="160" height="30" as="geometry" />
        </mxCell>
        <mxCell id="0wJ1i4YOx7rMI4dwbwaJ-93" value="Pré-requisitos" style="text;strokeColor=none;fillColor=none;spacingLeft=4;spacingRight=4;overflow=hidden;rotatable=0;points=[[0,0.5],[1,0.5]];portConstraint=eastwest;fontSize=12;" vertex="1" parent="0wJ1i4YOx7rMI4dwbwaJ-88">
          <mxGeometry y="116" width="160" height="30" as="geometry" />
        </mxCell>
        <mxCell id="0wJ1i4YOx7rMI4dwbwaJ-96" value="Tem" style="text;html=1;align=center;verticalAlign=middle;resizable=0;points=[];autosize=1;strokeColor=none;fillColor=none;fontSize=11;" vertex="1" parent="1">
          <mxGeometry x="710" y="478" width="50" height="30" as="geometry" />
        </mxCell>
        <mxCell id="0wJ1i4YOx7rMI4dwbwaJ-97" value="" style="fontSize=12;html=1;endArrow=ERmany;startArrow=ERmany;rounded=0;elbow=vertical;exitX=0.5;exitY=0;exitDx=0;exitDy=0;" edge="1" parent="1" source="0wJ1i4YOx7rMI4dwbwaJ-88">
          <mxGeometry width="100" height="100" relative="1" as="geometry">
            <mxPoint x="699.5" y="552" as="sourcePoint" />
            <mxPoint x="699.5" y="452" as="targetPoint" />
          </mxGeometry>
        </mxCell>
        <mxCell id="0wJ1i4YOx7rMI4dwbwaJ-99" value="Ministra" style="text;html=1;align=center;verticalAlign=middle;resizable=0;points=[];autosize=1;strokeColor=none;fillColor=none;fontSize=11;" vertex="1" parent="1">
          <mxGeometry x="585" y="760" width="70" height="30" as="geometry" />
        </mxCell>
        <mxCell id="0wJ1i4YOx7rMI4dwbwaJ-100" value="" style="edgeStyle=entityRelationEdgeStyle;fontSize=12;html=1;endArrow=ERmany;startArrow=ERmany;rounded=0;entryX=0;entryY=0.5;entryDx=0;entryDy=0;" edge="1" parent="1" target="0wJ1i4YOx7rMI4dwbwaJ-93">
          <mxGeometry width="100" height="100" relative="1" as="geometry">
            <mxPoint x="540" y="830" as="sourcePoint" />
            <mxPoint x="640" y="730" as="targetPoint" />
          </mxGeometry>
        </mxCell>
        <mxCell id="0wJ1i4YOx7rMI4dwbwaJ-101" value="" style="edgeStyle=elbowEdgeStyle;fontSize=12;html=1;endArrow=ERmandOne;startArrow=ERmandOne;rounded=0;entryX=0;entryY=0.5;entryDx=0;entryDy=0;" edge="1" parent="1" target="0wJ1i4YOx7rMI4dwbwaJ-83">
          <mxGeometry width="100" height="100" relative="1" as="geometry">
            <mxPoint x="540" y="750" as="sourcePoint" />
            <mxPoint x="610" y="490" as="targetPoint" />
          </mxGeometry>
        </mxCell>
        <mxCell id="0wJ1i4YOx7rMI4dwbwaJ-102" value="Coordena" style="text;html=1;align=center;verticalAlign=middle;resizable=0;points=[];autosize=1;strokeColor=none;fillColor=none;fontSize=11;" vertex="1" parent="1">
          <mxGeometry x="490" y="460" width="80" height="30" as="geometry" />
        </mxCell>
      </root>
    </mxGraphModel>
  </diagram>
</mxfile>
